<svg width="24" height="24" viewBox="0 0 24 24" fill="none" xmlns="http://www.w3.org/2000/svg">
<g clip-path="url(#clip0_45_1341)">
<path d="M6 6H10V10H6V6Z" stroke="#7D89B0" stroke-width="1.5" stroke-linecap="round" stroke-linejoin="round"/>
<path d="M6 14H10V18H6V14Z" stroke="#7D89B0" stroke-width="1.5" stroke-linecap="round" stroke-linejoin="round"/>
<path d="M18 10H14V6L18 6V10Z" stroke="#7D89B0" stroke-width="1.5" stroke-linecap="round" stroke-linejoin="round"/>
<path d="M16.0353 15.9648C16.0548 15.9844 16.0548 16.016 16.0353 16.0356C16.0158 16.0551 15.9841 16.0551 15.9646 16.0356C15.9451 16.016 15.9451 15.9844 15.9646 15.9648C15.9841 15.9453 16.0158 15.9453 16.0353 15.9648Z" stroke="#7D89B0" stroke-width="1.5" stroke-linecap="round" stroke-linejoin="round"/>
<path d="M14.0353 13.9648C14.0548 13.9844 14.0548 14.016 14.0353 14.0356C14.0158 14.0551 13.9841 14.0551 13.9646 14.0356C13.9451 14.016 13.9451 13.9844 13.9646 13.9648C13.9841 13.9453 14.0158 13.9453 14.0353 13.9648Z" stroke="#7D89B0" stroke-width="1.5" stroke-linecap="round" stroke-linejoin="round"/>
<path d="M14.0353 17.9648C14.0548 17.9844 14.0548 18.016 14.0353 18.0356C14.0158 18.0551 13.9841 18.0551 13.9646 18.0356C13.9451 18.016 13.9451 17.9844 13.9646 17.9648C13.9841 17.9453 14.0158 17.9453 14.0353 17.9648Z" stroke="#7D89B0" stroke-width="1.5" stroke-linecap="round" stroke-linejoin="round"/>
<path d="M18.0353 17.9648C18.0548 17.9844 18.0548 18.016 18.0353 18.0356C18.0158 18.0551 17.9841 18.0551 17.9646 18.0356C17.9451 18.016 17.9451 17.9844 17.9646 17.9648C17.9841 17.9453 18.0158 17.9453 18.0353 17.9648Z" stroke="#7D89B0" stroke-width="1.5" stroke-linecap="round" stroke-linejoin="round"/>
<path d="M21.5 7.978V4.5C21.5 3.395 20.605 2.5 19.5 2.5H16.022" stroke="#7D89B0" stroke-width="1.5" stroke-linecap="round" stroke-linejoin="round"/>
<path d="M7.978 2.5H4.5C3.395 2.5 2.5 3.395 2.5 4.5V7.978" stroke="#7D89B0" stroke-width="1.5" stroke-linecap="round" stroke-linejoin="round"/>
<path d="M2.5 16.022V19.5C2.5 20.605 3.395 21.5 4.5 21.5H7.978" stroke="#7D89B0" stroke-width="1.5" stroke-linecap="round" stroke-linejoin="round"/>
<path d="M16.022 21.5H19.5C20.605 21.5 21.5 20.605 21.5 19.5V16.022" stroke="#7D89B0" stroke-width="1.5" stroke-linecap="round" stroke-linejoin="round"/>
<path d="M18.0353 13.9648C18.0548 13.9844 18.0548 14.016 18.0353 14.0356C18.0158 14.0551 17.9841 14.0551 17.9646 14.0356C17.9451 14.016 17.9451 13.9844 17.9646 13.9648C17.9841 13.9453 18.0158 13.9453 18.0353 13.9648Z" stroke="#7D89B0" stroke-width="1.5" stroke-linecap="round" stroke-linejoin="round"/>
</g>
<defs>
<clipPath id="clip0_45_1341">
<rect width="24" height="24" fill="white"/>
</clipPath>
</defs>
</svg>
