<svg width="619" height="188" viewBox="0 0 619 188" fill="none" xmlns="http://www.w3.org/2000/svg">
<g clip-path="url(#clip0_45_1399)">
<path d="M236.126 72.1092C232.83 71.0119 229.835 69.8961 227.14 68.7618C224.444 67.6274 222.123 66.2563 220.177 64.6445C218.229 63.0365 216.713 61.1139 215.628 58.8804C214.543 56.6488 214 53.9231 214 50.7015C214 44.4803 216.451 39.5027 221.358 35.7703C226.261 32.038 233.131 30.1709 241.968 30.1709C245.186 30.1709 248.183 30.3892 250.954 30.8297C253.723 31.2682 256.101 31.9473 258.085 32.8614C260.069 33.7774 261.623 34.9469 262.748 36.3736C263.87 37.8002 264.432 39.4656 264.432 41.3697C264.432 43.2738 263.984 44.9004 263.085 46.2549C262.185 47.6094 261.099 48.7622 259.827 49.7134C258.18 48.6882 255.969 47.7908 253.201 47.0228C250.43 46.2549 247.397 45.87 244.103 45.87C240.809 45.87 238.263 46.3289 236.69 47.243C235.119 48.159 234.331 49.3118 234.331 50.7015C234.331 51.7988 234.818 52.6963 235.791 53.3902C236.762 54.0878 238.223 54.728 240.171 55.3109L246.123 57.178C253.159 59.3726 258.572 62.1742 262.352 65.5753C266.132 68.9783 268.023 73.608 268.023 79.4628C268.023 85.684 265.513 90.7153 260.499 94.5587C255.482 98.402 248.105 100.323 238.373 100.323C234.928 100.323 231.726 100.047 228.771 99.4994C225.813 98.9516 223.229 98.1467 221.021 97.0845C218.812 96.0242 217.089 94.7067 215.855 93.132C214.621 91.5591 214.002 89.7476 214.002 87.6973C214.002 85.647 214.638 83.7632 215.912 82.2625C217.184 80.7637 218.568 79.6109 220.067 78.8041C222.163 80.4139 224.73 81.8073 227.762 82.975C230.795 84.1463 234.108 84.731 237.701 84.731C241.294 84.731 243.952 84.1833 245.451 83.0841C246.948 81.9868 247.696 80.7063 247.696 79.2426C247.696 77.7789 247.096 76.6631 245.9 75.8933C244.701 75.1254 243.016 74.376 240.845 73.6432L236.128 72.1055L236.126 72.1092Z" fill="#6A35FF"/>
<path d="M331.143 98.4575C330.393 98.6777 329.214 98.8961 327.605 99.1163C325.994 99.3365 324.33 99.4457 322.607 99.4457C320.885 99.4457 319.48 99.3365 318.17 99.1163C316.86 98.8979 315.755 98.4575 314.857 97.7988C313.96 97.14 313.265 96.2444 312.779 95.1101C312.29 93.9758 312.048 92.4936 312.048 90.6635V66.2914C312.048 63.2918 311.279 61.186 309.746 59.9777C308.211 58.7712 306.32 58.1661 304.074 58.1661C302.575 58.1661 301.155 58.3493 299.808 58.7139C298.46 59.0821 297.373 59.5207 296.55 60.0314V98.4557C295.8 98.6759 294.621 98.8942 293.012 99.1144C291.401 99.3346 289.735 99.4438 288.014 99.4438C286.293 99.4438 284.887 99.3346 283.577 99.1144C282.267 98.8961 281.161 98.4557 280.264 97.7969C279.367 97.1382 278.672 96.2426 278.185 95.1082C277.697 93.9739 277.455 92.4917 277.455 90.6616V26.9881C278.278 26.8419 279.495 26.6403 281.104 26.383C282.713 26.1277 284.341 26 285.99 26C287.639 26 289.116 26.1092 290.428 26.3294C291.736 26.5477 292.843 26.9881 293.74 27.6469C294.638 28.3056 295.331 29.2031 295.819 30.3356C296.305 31.4717 296.548 32.9539 296.548 34.7822V45.5406C297.521 45.1761 298.999 44.7542 300.985 44.2786C302.969 43.803 305.157 43.5643 307.556 43.5643C314.969 43.5643 320.752 45.3759 324.907 48.9991C329.063 52.6222 331.141 58.02 331.141 65.1922V98.4575H331.143Z" fill="#6A35FF"/>
<path d="M493.66 98.4574C492.911 98.6776 491.731 98.8959 490.122 99.1161C488.511 99.3363 486.847 99.4455 485.125 99.4455C483.402 99.4455 481.997 99.3363 480.687 99.1161C479.377 98.8978 478.272 98.4574 477.374 97.7986C476.477 97.1399 475.782 96.2442 475.296 95.1099C474.808 93.9756 474.565 92.4934 474.565 90.6633V57.7274C474.565 56.0454 474.883 54.5983 475.521 53.39C476.155 52.1835 477.073 51.1047 478.272 50.1517C479.468 49.2024 480.949 48.3401 482.709 47.5722C484.468 46.8043 486.359 46.127 488.381 45.5404C490.402 44.9557 492.498 44.4968 494.671 44.1674C496.842 43.838 499.012 43.6733 501.185 43.6733C504.78 43.6733 507.623 44.3506 509.721 45.7051C511.816 47.0596 512.865 49.2728 512.865 52.3482C512.865 53.3733 512.714 54.3781 512.416 55.3662C512.117 56.3544 511.743 57.2518 511.294 58.0568C509.723 58.0568 508.11 58.1308 506.465 58.2751C504.816 58.4232 503.207 58.6434 501.636 58.9339C500.064 59.2281 498.584 59.539 497.198 59.8684C495.813 60.1977 494.633 60.5808 493.66 61.0212V98.4574V98.4574Z" fill="#5EC6E8"/>
<path d="M539.82 80.2346C539.82 82.1387 540.437 83.4914 541.673 84.2963C542.907 85.1031 544.649 85.5047 546.896 85.5047C548.019 85.5047 549.179 85.414 550.377 85.2308C551.574 85.0495 552.624 84.8108 553.522 84.5165C554.196 85.3233 554.775 86.2189 555.263 87.2071C555.75 88.1952 555.994 89.385 555.994 90.7747C555.994 93.5578 554.926 95.8246 552.793 97.5806C550.659 99.3367 546.896 100.216 541.507 100.216C534.917 100.216 529.844 98.7501 526.288 95.8246C522.731 92.899 520.954 88.1397 520.954 81.5521V34.564C521.777 34.3438 522.955 34.1069 524.492 33.8497C526.025 33.5944 527.653 33.4648 529.378 33.4648C532.672 33.4648 535.235 34.0329 537.071 35.1672C538.906 36.3034 539.824 38.6979 539.824 42.358V49.3841H554.536C554.985 50.1909 555.415 51.1957 555.827 52.4022C556.238 53.6105 556.445 54.9466 556.445 56.4103C556.445 58.9731 555.863 60.8198 554.703 61.9542C553.541 63.0903 551.988 63.6566 550.042 63.6566H539.822V80.2346H539.82Z" fill="#5EC6E8"/>
<path d="M574.186 84.9549C573.361 83.1266 572.483 81.0763 571.547 78.8077C570.61 76.5409 569.639 73.9411 568.628 71.0137C567.617 68.0863 566.567 64.7388 565.484 60.9676C564.397 57.1983 563.256 52.8627 562.058 47.9591C563.106 46.9339 564.509 46.0383 566.27 45.2685C568.028 44.5006 569.955 44.1157 572.053 44.1157C574.673 44.1157 576.844 44.6468 578.567 45.7071C580.289 46.7692 581.562 48.764 582.385 51.6914L591.258 81.8831H591.706C592.604 79.3961 593.484 76.6871 594.345 73.7579C595.205 70.8323 596.049 67.8124 596.872 64.7018C597.696 61.5912 598.463 58.4807 599.174 55.3701C599.884 52.2595 600.503 49.2063 601.028 46.203C603.723 44.8133 606.68 44.1176 609.9 44.1176C612.52 44.1176 614.692 44.6653 616.414 45.7645C618.135 46.8618 618.996 48.7659 618.996 51.4731C618.996 53.4493 618.733 55.7383 618.211 58.3345C617.686 60.9343 616.994 63.697 616.134 66.6226C615.273 69.55 614.262 72.5699 613.101 75.6805C611.939 78.7929 610.724 81.8461 609.452 84.8475C608.178 87.8489 606.87 90.6838 605.522 93.3558C604.174 96.0279 602.864 98.4242 601.592 100.547C599.494 104.133 597.548 107.06 595.752 109.329C593.955 111.597 592.231 113.372 590.586 114.654C588.939 115.935 587.29 116.812 585.645 117.289C583.998 117.765 582.275 118.004 580.479 118.004C577.334 118.004 574.788 117.088 572.842 115.259C570.894 113.429 569.734 111.05 569.361 108.124C571.758 106.294 574.152 104.262 576.549 102.031C578.945 99.7972 581.115 97.5138 583.063 95.1693C581.789 94.8047 580.424 93.9443 578.962 92.5898C577.503 91.2371 575.911 88.6927 574.188 84.9586L574.186 84.9549Z" fill="#79D0EC"/>
<path d="M438.673 39.4935C425.255 35.5317 411.557 40.3281 403.781 51.7323L402.314 53.877L400.852 51.7323C393.066 40.3281 379.395 35.5021 365.95 39.4991C352.534 43.4683 343.861 54.8929 343.861 68.599C343.861 82.3052 352.534 93.7224 365.95 97.6935C379.366 101.677 393.063 96.87 400.852 85.4602L402.314 83.3119L403.781 85.4602C404.108 85.9395 404.442 86.4058 404.79 86.8591C410.781 94.7254 419.747 99.0683 429.327 99.0683C432.405 99.0683 435.546 98.6224 438.677 97.699C452.093 93.7224 460.763 82.3034 460.763 68.599C460.763 54.8947 452.093 43.4683 438.671 39.4935H438.673ZM386.956 76.4042C382.585 82.8067 375.751 83.545 370.787 82.0684C365.846 80.6084 360.561 76.2987 360.561 68.599C360.561 60.8994 365.846 56.5823 370.791 55.1223C372.15 54.7171 373.651 54.4784 375.207 54.4784C379.311 54.4784 383.781 56.1363 386.956 60.7883L392.283 68.5953L386.956 76.406V76.4042ZM433.833 82.0684C428.903 83.5413 422.049 82.8122 417.678 76.4042L414.821 72.2166L412.349 68.5935L417.676 60.7865C422.041 54.3821 428.864 53.642 433.831 55.1205C438.779 56.5805 444.065 60.892 444.065 68.5972C444.065 76.3024 438.779 80.6065 433.831 82.0665L433.833 82.0684Z" fill="url(#paint0_linear_45_1399)"/>
<path opacity="0.5" d="M414.821 72.2183L404.79 86.8589C404.441 86.4056 404.108 85.9393 403.781 85.46L402.314 83.3116L412.349 68.5933L414.821 72.2164V72.2183Z" fill="url(#paint1_linear_45_1399)"/>
<path opacity="0.5" d="M402.314 53.875L392.282 68.5157C391.934 68.0623 391.601 67.596 391.273 67.1167L389.806 64.9684L399.841 50.25L402.314 53.8732V53.875Z" fill="url(#paint2_linear_45_1399)"/>
<path d="M413.125 61.2603H391.504C387.292 61.2603 383.877 64.5982 383.877 68.7157V69.7464C383.877 73.8639 387.292 77.2018 391.504 77.2018H413.125C417.337 77.2018 420.752 73.8639 420.752 69.7464V68.7157C420.752 64.5982 417.337 61.2603 413.125 61.2603Z" fill="white" fill-opacity="0.5"/>
</g>
<g filter="url(#filter0_dd_45_1399)">
<rect x="18" y="1" width="148" height="148" rx="40" fill="white"/>
<g clip-path="url(#clip1_45_1399)">
<rect x="36" y="45" width="112" height="60" rx="30" fill="#F9FAFB"/>
<path d="M126.835 46.3586C113.979 42.4601 100.855 47.1794 93.4074 58.4039L92.001 60.5155L90.5999 58.4039C83.1415 47.1805 70.0433 42.43 57.1631 46.3638C44.3098 50.2696 36 61.5148 36 75.0045C36 88.4941 44.3098 99.7321 57.1631 103.641C70.0164 107.562 83.1373 102.83 90.6009 91.6009L92.0021 89.4872L93.4084 91.6009C93.7215 92.072 94.0418 92.5317 94.3756 92.9769C100.116 100.718 108.705 104.994 117.883 104.994C120.831 104.994 123.84 104.555 126.842 103.645C139.695 99.731 148.002 88.4921 148.002 75.0045C148.002 61.5169 139.693 50.2696 126.835 46.3586ZM77.2878 82.6884C73.0998 88.9901 66.5528 89.7176 61.7965 88.2627C57.0639 86.8256 51.9997 82.5846 51.9997 75.0055C51.9997 67.4264 57.0629 63.1782 61.8006 61.741C63.1026 61.3425 64.542 61.107 66.031 61.107C69.9637 61.107 74.2447 62.7392 77.2868 67.3174L82.3902 75.0003L77.2868 82.6884H77.2878ZM122.198 88.2627C117.475 89.7124 110.907 88.9953 106.72 82.6884L103.984 78.5668L101.617 75.0003L106.72 67.3174C110.903 61.0136 117.438 60.2862 122.198 61.741C126.939 63.1782 132.002 67.4212 132.002 75.0055C132.002 82.5898 126.939 86.8256 122.198 88.2627V88.2627Z" fill="url(#paint3_linear_45_1399)"/>
<path opacity="0.5" d="M103.984 78.5665L94.3745 92.9766C94.0418 92.5304 93.7204 92.0717 93.4073 91.6006L92.001 89.4869L101.616 75L103.983 78.5665H103.984Z" fill="url(#paint4_linear_45_1399)"/>
<path opacity="0.5" d="M92.0001 60.5123L82.3903 74.9223C82.0576 74.4762 81.7363 74.0175 81.4232 73.5464L80.0168 71.4327L89.6318 56.9458L91.9991 60.5123H92.0001Z" fill="url(#paint5_linear_45_1399)"/>
<path opacity="0.6" d="M101.851 67.7808H82.1495C77.8346 67.7808 74.3367 71.2934 74.3367 75.6266C74.3367 79.9597 77.8346 83.4724 82.1495 83.4724H101.851C106.165 83.4724 109.663 79.9597 109.663 75.6266C109.663 71.2934 106.165 67.7808 101.851 67.7808Z" fill="white"/>
</g>
</g>
<defs>
<filter id="filter0_dd_45_1399" x="0" y="0" width="188" height="188" filterUnits="userSpaceOnUse" color-interpolation-filters="sRGB">
<feFlood flood-opacity="0" result="BackgroundImageFix"/>
<feColorMatrix in="SourceAlpha" type="matrix" values="0 0 0 0 0 0 0 0 0 0 0 0 0 0 0 0 0 0 127 0" result="hardAlpha"/>
<feMorphology radius="4" operator="erode" in="SourceAlpha" result="effect1_dropShadow_45_1399"/>
<feOffset dx="2" dy="9"/>
<feGaussianBlur stdDeviation="4"/>
<feColorMatrix type="matrix" values="0 0 0 0 0.4916 0 0 0 0 0.53752 0 0 0 0 0.6884 0 0 0 0.08 0"/>
<feBlend mode="normal" in2="BackgroundImageFix" result="effect1_dropShadow_45_1399"/>
<feColorMatrix in="SourceAlpha" type="matrix" values="0 0 0 0 0 0 0 0 0 0 0 0 0 0 0 0 0 0 127 0" result="hardAlpha"/>
<feMorphology radius="4" operator="erode" in="SourceAlpha" result="effect2_dropShadow_45_1399"/>
<feOffset dx="2" dy="19"/>
<feGaussianBlur stdDeviation="12"/>
<feColorMatrix type="matrix" values="0 0 0 0 0.4916 0 0 0 0 0.53752 0 0 0 0 0.6884 0 0 0 0.14 0"/>
<feBlend mode="normal" in2="effect1_dropShadow_45_1399" result="effect2_dropShadow_45_1399"/>
<feBlend mode="normal" in="SourceGraphic" in2="effect2_dropShadow_45_1399" result="shape"/>
</filter>
<linearGradient id="paint0_linear_45_1399" x1="462.995" y1="52.8666" x2="328.118" y2="89.4613" gradientUnits="userSpaceOnUse">
<stop stop-color="#5EC6E8"/>
<stop offset="1" stop-color="#6A35FF"/>
</linearGradient>
<linearGradient id="paint1_linear_45_1399" x1="409.579" y1="78.3284" x2="403.044" y2="74.2435" gradientUnits="userSpaceOnUse">
<stop stop-opacity="0"/>
<stop offset="1"/>
</linearGradient>
<linearGradient id="paint2_linear_45_1399" x1="394.791" y1="58.3808" x2="402.661" y2="64.8807" gradientUnits="userSpaceOnUse">
<stop stop-opacity="0"/>
<stop offset="1"/>
</linearGradient>
<linearGradient id="paint3_linear_45_1399" x1="150.136" y1="59.5204" x2="20.4506" y2="93.7708" gradientUnits="userSpaceOnUse">
<stop stop-color="#5EC6E8"/>
<stop offset="1" stop-color="#6A35FF"/>
</linearGradient>
<linearGradient id="paint4_linear_45_1399" x1="98.9603" y1="84.5808" x2="92.6065" y2="80.7134" gradientUnits="userSpaceOnUse">
<stop stop-opacity="0"/>
<stop offset="1"/>
</linearGradient>
<linearGradient id="paint5_linear_45_1399" x1="84.7938" y1="64.9473" x2="92.4968" y2="71.1405" gradientUnits="userSpaceOnUse">
<stop stop-opacity="0"/>
<stop offset="1"/>
</linearGradient>
<clipPath id="clip0_45_1399">
<rect width="405" height="92" fill="white" transform="translate(214 30)"/>
</clipPath>
<clipPath id="clip1_45_1399">
<rect x="36" y="45" width="112" height="60" rx="30" fill="white"/>
</clipPath>
</defs>
</svg>
