<svg width="101" height="23" viewBox="0 0 101 23" fill="none" xmlns="http://www.w3.org/2000/svg">
<path d="M5.51779 11.5271C4.69588 11.2527 3.94904 10.9738 3.27678 10.6902C2.60452 10.4066 2.02574 10.0638 1.54043 9.66089C1.05465 9.25888 0.676506 8.77823 0.405998 8.21986C0.13549 7.66195 0 6.98053 0 6.17513C0 4.61984 0.611357 3.37542 1.83502 2.44234C3.05773 1.50925 4.77095 1.04248 6.97467 1.04248C7.77722 1.04248 8.52454 1.09707 9.21568 1.20717C9.90635 1.31681 10.4993 1.48659 10.994 1.71511C11.4888 1.94411 11.8764 2.23647 12.1568 2.59315C12.4368 2.94982 12.577 3.36617 12.577 3.84219C12.577 4.31822 12.4651 4.72485 12.2408 5.06348C12.0166 5.40211 11.7456 5.69031 11.4284 5.9281C11.0177 5.67181 10.4662 5.44744 9.77605 5.25546C9.08491 5.06348 8.32862 4.96726 7.50718 4.96726C6.68575 4.96726 6.05079 5.08198 5.65848 5.31051C5.26664 5.5395 5.07025 5.82771 5.07025 6.17513C5.07025 6.44946 5.19158 6.67382 5.43423 6.8473C5.67642 7.0217 6.04087 7.18177 6.52665 7.32749L8.01091 7.79426C9.76567 8.34292 11.1154 9.04331 12.0581 9.89358C13.0009 10.7443 13.4725 11.9018 13.4725 13.3655C13.4725 14.9208 12.8465 16.1786 11.596 17.1394C10.3449 18.1003 8.50518 18.5805 6.07817 18.5805C5.21896 18.5805 4.42066 18.5115 3.68372 18.3746C2.94585 18.2377 2.30144 18.0364 1.75098 17.7709C1.20005 17.5058 0.770452 17.1764 0.462649 16.7828C0.154846 16.3895 0.000472091 15.9366 0.000472091 15.4241C0.000472091 14.9115 0.159095 14.4406 0.476812 14.0654C0.794056 13.6907 1.13915 13.4025 1.51305 13.2008C2.03565 13.6032 2.67581 13.9516 3.4321 14.2435C4.18839 14.5363 5.01455 14.6825 5.91057 14.6825C6.8066 14.6825 7.46942 14.5456 7.84331 14.2708C8.21674 13.9965 8.40321 13.6763 8.40321 13.3104C8.40321 12.9445 8.25356 12.6655 7.9552 12.4731C7.65636 12.2811 7.2362 12.0938 6.69472 11.9106L5.51827 11.5261L5.51779 11.5271Z" fill="#6A35FF"/>
<path d="M29.2134 18.1144C29.0265 18.1694 28.7324 18.224 28.3311 18.2791C27.9293 18.3341 27.5144 18.3614 27.0848 18.3614C26.6552 18.3614 26.3049 18.3341 25.9782 18.2791C25.6515 18.2245 25.3758 18.1144 25.152 17.9497C24.9283 17.785 24.755 17.5611 24.6337 17.2775C24.5119 16.9939 24.4514 16.6234 24.4514 16.1659V10.0729C24.4514 9.32296 24.2598 8.79651 23.8774 8.49443C23.4945 8.19281 23.0229 8.04153 22.463 8.04153C22.0891 8.04153 21.735 8.08733 21.3989 8.17847C21.0628 8.27052 20.7918 8.38016 20.5864 8.50784V18.1139C20.3995 18.169 20.1054 18.2236 19.7041 18.2786C19.3024 18.3337 18.8869 18.361 18.4578 18.361C18.0287 18.361 17.6779 18.3337 17.3512 18.2786C17.0245 18.224 16.7488 18.1139 16.525 17.9492C16.3013 17.7845 16.128 17.5606 16.0067 17.2771C15.8849 16.9935 15.8245 16.6229 15.8245 16.1654V0.247033C16.0298 0.210487 16.3334 0.160063 16.7347 0.0957601C17.1359 0.03192 17.5419 0 17.9531 0C18.3643 0 18.7325 0.0272939 19.0597 0.0823444C19.3859 0.136932 19.6621 0.247033 19.8859 0.411722C20.1096 0.576411 20.2824 0.800776 20.4042 1.08389C20.5255 1.36794 20.586 1.73848 20.586 2.19554V4.88515C20.8286 4.79402 21.1973 4.68854 21.6925 4.56965C22.1873 4.45076 22.733 4.39109 23.3312 4.39109C25.1799 4.39109 26.6221 4.84398 27.6584 5.74977C28.6946 6.65556 29.213 8.00499 29.213 9.79806V18.1144H29.2134Z" fill="#6A35FF"/>
<path d="M69.7425 18.1145C69.5555 18.1695 69.2614 18.2241 68.8601 18.2792C68.4584 18.3342 68.0434 18.3615 67.6138 18.3615C67.1842 18.3615 66.8339 18.3342 66.5072 18.2792C66.1805 18.2246 65.9048 18.1145 65.6811 17.9498C65.4573 17.7851 65.284 17.5612 65.1627 17.2776C65.0409 16.994 64.9805 16.6235 64.9805 16.166V7.93197C64.9805 7.51146 65.0598 7.1497 65.2189 6.84762C65.377 6.546 65.606 6.2763 65.9048 6.03805C66.2032 5.80073 66.5724 5.58516 67.0114 5.39317C67.45 5.20119 67.9216 5.03188 68.4258 4.88523C68.93 4.73904 69.4526 4.62432 69.9945 4.54197C70.536 4.45963 71.0771 4.41846 71.619 4.41846C72.5155 4.41846 73.2246 4.58777 73.7477 4.9264C74.2703 5.26503 74.5318 5.81831 74.5318 6.58717C74.5318 6.84345 74.494 7.09465 74.4199 7.34168C74.3453 7.58872 74.2519 7.81308 74.14 8.01432C73.7481 8.01432 73.3459 8.03282 72.9357 8.06891C72.5245 8.10591 72.1232 8.16096 71.7314 8.23359C71.3395 8.30715 70.9704 8.38487 70.6248 8.46721C70.2792 8.54956 69.9851 8.64532 69.7425 8.75542V18.1145V18.1145Z" fill="#5EC6E8"/>
<path d="M81.2539 13.5587C81.2539 14.0347 81.4078 14.3729 81.7161 14.5741C82.0239 14.7758 82.4582 14.8762 83.0186 14.8762C83.2986 14.8762 83.5879 14.8535 83.8868 14.8077C84.1851 14.7624 84.4472 14.7027 84.6709 14.6291C84.839 14.8308 84.9834 15.0547 85.1052 15.3018C85.2266 15.5488 85.2875 15.8463 85.2875 16.1937C85.2875 16.8894 85.0212 17.4561 84.4892 17.8952C83.9571 18.3342 83.0186 18.5539 81.6746 18.5539C80.0312 18.5539 78.766 18.1875 77.8794 17.4561C76.9924 16.7248 76.5491 15.5349 76.5491 13.888V2.141C76.7544 2.08595 77.0481 2.02674 77.4314 1.96243C77.8138 1.89859 78.2198 1.86621 78.6499 1.86621C79.4713 1.86621 80.1105 2.00823 80.5685 2.29181C81.0259 2.57585 81.2549 3.17447 81.2549 4.08951V5.84604H84.924C85.0358 6.04774 85.143 6.29893 85.2459 6.60055C85.3484 6.90264 85.3998 7.23664 85.3998 7.60256C85.3998 8.24328 85.2549 8.70496 84.9655 8.98854C84.6756 9.27258 84.2885 9.41414 83.8032 9.41414H81.2544V13.5587H81.2539Z" fill="#5EC6E8"/>
<path d="M89.8242 14.7386C89.6184 14.2815 89.3994 13.769 89.1662 13.2018C88.9325 12.6351 88.6903 11.9851 88.4382 11.2533C88.1861 10.5214 87.9241 9.68459 87.654 8.74179C87.3831 7.79946 87.0984 6.71556 86.7996 5.48965C87.0611 5.23336 87.4109 5.00946 87.85 4.81701C88.2885 4.62503 88.7691 4.52881 89.2922 4.52881C89.9456 4.52881 90.4871 4.66158 90.9167 4.92665C91.3463 5.19219 91.6635 5.69088 91.8689 6.42273L94.0816 13.9707H94.1934C94.4172 13.3489 94.6367 12.6717 94.8515 11.9393C95.0659 11.208 95.2764 10.453 95.4818 9.67533C95.6871 8.89769 95.8783 8.12004 96.0558 7.3424C96.2329 6.56475 96.3872 5.80145 96.518 5.05063C97.1903 4.70321 97.9277 4.52927 98.7307 4.52927C99.3841 4.52927 99.9256 4.6662 100.355 4.94099C100.784 5.21532 100.999 5.69135 100.999 6.36814C100.999 6.86221 100.933 7.43446 100.803 8.0835C100.672 8.73346 100.5 9.42414 100.285 10.1555C100.07 10.8874 99.8184 11.6423 99.529 12.42C99.2391 13.1981 98.9361 13.9614 98.6188 14.7118C98.3011 15.4621 97.9749 16.1708 97.6388 16.8388C97.3026 17.5068 96.9759 18.1059 96.6587 18.6365C96.1356 19.5331 95.6503 20.2649 95.2023 20.8321C94.7543 21.3992 94.3242 21.8429 93.914 22.1635C93.5032 22.4836 93.0921 22.7029 92.6818 22.8222C92.2711 22.9411 91.8415 23.0008 91.3935 23.0008C90.6093 23.0008 89.9744 22.7718 89.4891 22.3147C89.0033 21.8572 88.7139 21.2623 88.6209 20.5309C89.2186 20.0734 89.8157 19.5655 90.4134 19.0075C91.0111 18.4492 91.5521 17.8783 92.0379 17.2922C91.7202 17.2011 91.3798 16.9859 91.0153 16.6473C90.6513 16.3091 90.2543 15.6731 89.8247 14.7395L89.8242 14.7386Z" fill="#79D0EC"/>
<path d="M56.0297 3.37326C52.6835 2.38281 49.2674 3.5819 47.3281 6.43296L46.9622 6.96912L46.5978 6.43296C44.6561 3.5819 41.2466 2.37541 37.8938 3.37465C34.5481 4.36694 32.385 7.22309 32.385 10.6496C32.385 14.0762 34.5481 16.9305 37.8938 17.9232C41.2395 18.9192 44.6551 17.7174 46.5978 14.8649L46.9622 14.3278L47.3281 14.8649C47.4098 14.9847 47.4929 15.1013 47.5797 15.2147C49.0739 17.1812 51.3097 18.267 53.699 18.267C54.4666 18.267 55.2498 18.1555 56.0306 17.9246C59.3763 16.9305 61.5385 14.0757 61.5385 10.6496C61.5385 7.22355 59.3763 4.36694 56.0292 3.37326H56.0297ZM43.1322 12.6009C42.0421 14.2016 40.3378 14.3861 39.1 14.017C37.8679 13.652 36.5498 12.5746 36.5498 10.6496C36.5498 8.72472 37.8679 7.64545 39.101 7.28046C39.4399 7.17914 39.8143 7.11947 40.2024 7.11947C41.2259 7.11947 42.3405 7.53397 43.1322 8.69696L44.4606 10.6487L43.1322 12.6014V12.6009ZM54.8225 14.017C53.5932 14.3852 51.8838 14.2029 50.7937 12.6009L50.0813 11.554L49.4648 10.6482L50.7932 8.6965C51.8819 7.09541 53.5833 6.91037 54.8221 7.27999C56.0561 7.64499 57.3742 8.72287 57.3742 10.6492C57.3742 12.5755 56.0561 13.6515 54.8221 14.0165L54.8225 14.017Z" fill="url(#paint0_linear_45_1373)"/>
<path opacity="0.5" d="M50.0813 11.5547L47.5797 15.2149C47.4928 15.1015 47.4097 14.9849 47.328 14.8651L46.9622 14.328L49.4647 10.6484L50.0813 11.5542V11.5547Z" fill="url(#paint1_linear_45_1373)"/>
<path opacity="0.5" d="M46.9621 6.96875L44.4605 10.6289C44.3736 10.5156 44.2906 10.399 44.2089 10.2792L43.843 9.74209L46.3456 6.0625L46.9621 6.96829V6.96875Z" fill="url(#paint2_linear_45_1373)"/>
<path d="M49.6583 8.81494H44.2666C43.2161 8.81494 42.3645 9.64942 42.3645 10.6788V10.9365C42.3645 11.9658 43.2161 12.8003 44.2666 12.8003H49.6583C50.7088 12.8003 51.5604 11.9658 51.5604 10.9365V10.6788C51.5604 9.64942 50.7088 8.81494 49.6583 8.81494Z" fill="white" fill-opacity="0.5"/>
<defs>
<linearGradient id="paint0_linear_45_1373" x1="62.0951" y1="6.71654" x2="28.4478" y2="15.8232" gradientUnits="userSpaceOnUse">
<stop stop-color="#5EC6E8"/>
<stop offset="1" stop-color="#6A35FF"/>
</linearGradient>
<linearGradient id="paint1_linear_45_1373" x1="48.774" y1="13.0822" x2="47.142" y2="12.0646" gradientUnits="userSpaceOnUse">
<stop stop-opacity="0"/>
<stop offset="1"/>
</linearGradient>
<linearGradient id="paint2_linear_45_1373" x1="45.086" y1="8.0952" x2="47.0527" y2="9.71541" gradientUnits="userSpaceOnUse">
<stop stop-opacity="0"/>
<stop offset="1"/>
</linearGradient>
</defs>
</svg>
