<svg width="1261" height="913" viewBox="0 0 1261 913" fill="none" xmlns="http://www.w3.org/2000/svg">
<g opacity="0.628">
<path opacity="0.676" d="M758.193 119.791C873.42 172.446 934.864 329.68 916.286 474.17C897.708 618.658 797.787 750.663 687.989 768.312C577.416 785.5 456.852 687.742 349.849 642.1C243.623 596.925 150.843 603.271 88.4048 553.889C25.9646 504.507 -6.79363 399.526 35.2142 326.15C77.2221 252.774 193.452 211.726 335.355 165.071C476.596 118.547 643.625 67.0076 758.193 119.791V119.791Z" stroke="#C6DBDC"/>
<path opacity="0.127" d="M924.126 257.461C1041.95 304.013 1111.54 457.816 1100.55 603.079C1089.56 748.344 996.685 885.394 887.962 908.768C778.439 931.717 652.924 840.406 543.679 800.427C435.235 760.87 342.914 772.063 277.976 726.018C213.038 679.97 174.831 576.848 212.942 501.374C251.053 425.901 364.973 378.825 504.238 324.809C642.85 270.956 806.954 210.746 924.128 257.463L924.126 257.461Z" fill="#4AC7FD"/>
<path opacity="0.147" d="M822.337 775.542C733.41 747.867 631.331 721.594 596.614 651.807C561.895 582.019 595.241 469.262 633.546 385.344C671.291 301.543 714.557 246.464 755.99 185.517C796.722 124.025 836.04 55.8801 889.462 37.5714C942.883 19.2662 1011.67 51.2244 1073.89 90.8323C1136.11 130.442 1192.33 177.585 1225.08 240.838C1258.24 303.309 1267.92 381.895 1256.03 449.77C1243.59 517.764 1208.86 574.507 1172.76 641.269C1136.1 708.156 1098.48 784.282 1042.13 808.077C985.778 831.872 910.705 803.339 822.336 775.542H822.337Z" fill="#54A7FF"/>
<path opacity="0.561" d="M588.405 264.215C585.49 337.204 586.309 419.869 540.485 460.338C494.662 500.806 402.47 498.434 331.118 486.45C259.971 474.865 209.46 453.269 154.877 434.251C100.022 415.876 40.4141 399.92 15.702 363.166C-9.01172 326.411 1.23531 267.815 18.6136 212.634C35.9901 157.456 60.2918 105.294 101.565 67.6463C142.162 29.8426 199.73 6.55203 253.564 1.7813C307.604 -2.59116 357.638 12.1983 415.548 25.9955C473.662 40.1927 538.97 53.2431 568.438 91.1017C597.902 128.959 591.524 191.627 588.405 264.215V264.215Z" stroke="#2D88DF" stroke-opacity="0.605"/>
</g>
</svg>
