<svg width="24" height="24" viewBox="0 0 24 24" fill="none" xmlns="http://www.w3.org/2000/svg">
<g clip-path="url(#clip0_45_1333)">
<path d="M9 12H7V12C4.79086 12 3 10.2091 3 8V8V8V8C3 5.79086 4.79086 4 7 4H9" stroke="#30374F" stroke-width="1.5" stroke-linecap="round" stroke-linejoin="round"/>
<path d="M14 4H16V4C18.2091 4 20 5.79086 20 8" stroke="#30374F" stroke-width="1.5" stroke-linecap="round" stroke-linejoin="round"/>
<path d="M7 8H15" stroke="#30374F" stroke-width="1.5" stroke-linecap="round" stroke-linejoin="round"/>
<path d="M16.5 20C18.9853 20 21 17.9853 21 15.5C21 13.0147 18.9853 11 16.5 11C14.0147 11 12 13.0147 12 15.5C12 17.9853 14.0147 20 16.5 20Z" stroke="#30374F" stroke-width="1.5" stroke-linecap="round" stroke-linejoin="round"/>
<path d="M18.0131 14.6089L16.1231 16.4978L14.9868 15.3649" stroke="#30374F" stroke-width="1.5" stroke-linecap="round" stroke-linejoin="round"/>
</g>
<defs>
<clipPath id="clip0_45_1333">
<rect width="24" height="24" fill="white"/>
</clipPath>
</defs>
</svg>
