<svg width="96" height="108" viewBox="0 0 96 108" fill="none" xmlns="http://www.w3.org/2000/svg">
<rect x="16" y="16" width="64" height="30" rx="15" fill="#F9F9FB"/>
<g filter="url(#filter0_dd_45_1426)">
<circle cx="33.3333" cy="31" r="11" fill="white"/>
</g>
<path d="M67.6696 31.5174C67.9587 31.3826 68.267 31.6652 68.1865 31.9722C67.9114 33.0174 67.3709 34.0122 66.5387 34.8382C64.0675 37.2913 60.1141 37.3426 57.7068 34.953C55.2995 32.5635 55.3521 28.6382 57.8233 26.1852C58.6555 25.3591 59.6568 24.8226 60.7106 24.5495C61.0198 24.4695 61.3037 24.7756 61.1688 25.0626C60.291 26.9226 60.5792 29.1504 62.0658 30.6261C63.5515 32.1026 65.7958 32.3887 67.6696 31.5174V31.5174Z" stroke="#7D89B0" stroke-width="1.5" stroke-linecap="round" stroke-linejoin="round"/>
<rect x="16" y="62" width="64" height="30" rx="15" fill="#30374F"/>
<g filter="url(#filter1_dd_45_1426)">
<circle cx="62" cy="77" r="11" fill="white"/>
</g>
<rect x="0.5" y="0.5" width="95" height="107" rx="4.5" stroke="#9747FF" stroke-dasharray="10 5"/>
<defs>
<filter id="filter0_dd_45_1426" x="19.3767" y="17.0435" width="33.8261" height="30.8696" filterUnits="userSpaceOnUse" color-interpolation-filters="sRGB">
<feFlood flood-opacity="0" result="BackgroundImageFix"/>
<feColorMatrix in="SourceAlpha" type="matrix" values="0 0 0 0 0 0 0 0 0 0 0 0 0 0 0 0 0 0 127 0" result="hardAlpha"/>
<feOffset dy="1.47826"/>
<feGaussianBlur stdDeviation="1.47826"/>
<feColorMatrix type="matrix" values="0 0 0 0 0.0627451 0 0 0 0 0.0941176 0 0 0 0 0.156863 0 0 0 0.06 0"/>
<feBlend mode="normal" in2="BackgroundImageFix" result="effect1_dropShadow_45_1426"/>
<feColorMatrix in="SourceAlpha" type="matrix" values="0 0 0 0 0 0 0 0 0 0 0 0 0 0 0 0 0 0 127 0" result="hardAlpha"/>
<feOffset dx="4.43478" dy="1.47826"/>
<feGaussianBlur stdDeviation="2.21739"/>
<feColorMatrix type="matrix" values="0 0 0 0 0.0627451 0 0 0 0 0.0941176 0 0 0 0 0.156863 0 0 0 0.1 0"/>
<feBlend mode="normal" in2="effect1_dropShadow_45_1426" result="effect2_dropShadow_45_1426"/>
<feBlend mode="normal" in="SourceGraphic" in2="effect2_dropShadow_45_1426" result="shape"/>
</filter>
<filter id="filter1_dd_45_1426" x="42.1352" y="60.0852" width="33.8213" height="30.8696" filterUnits="userSpaceOnUse" color-interpolation-filters="sRGB">
<feFlood flood-opacity="0" result="BackgroundImageFix"/>
<feColorMatrix in="SourceAlpha" type="matrix" values="0 0 0 0 0 0 0 0 0 0 0 0 0 0 0 0 0 0 127 0" result="hardAlpha"/>
<feOffset dy="-1.48"/>
<feGaussianBlur stdDeviation="1.47826"/>
<feColorMatrix type="matrix" values="0 0 0 0 0.0627451 0 0 0 0 0.0941176 0 0 0 0 0.156863 0 0 0 0.56 0"/>
<feBlend mode="normal" in2="BackgroundImageFix" result="effect1_dropShadow_45_1426"/>
<feColorMatrix in="SourceAlpha" type="matrix" values="0 0 0 0 0 0 0 0 0 0 0 0 0 0 0 0 0 0 127 0" result="hardAlpha"/>
<feOffset dx="-4.43" dy="-1.48"/>
<feGaussianBlur stdDeviation="2.21739"/>
<feColorMatrix type="matrix" values="0 0 0 0 0.0627451 0 0 0 0 0.0941176 0 0 0 0 0.156863 0 0 0 0.8 0"/>
<feBlend mode="normal" in2="effect1_dropShadow_45_1426" result="effect2_dropShadow_45_1426"/>
<feBlend mode="normal" in="SourceGraphic" in2="effect2_dropShadow_45_1426" result="shape"/>
</filter>
</defs>
</svg>
